
<svg viewBox="0 0 64 64" xmlns="http://www.w3.org/2000/svg" class='icon'>
<g transform="transform(0 -1)">
<path d="m21.308 26.75-1.325-1.5c-0.5547 0.4683-1.2571 0.7251-1.983 0.7251s-1.4283-0.2568-1.983-0.7251l-1.325 1.5c0.9135 0.806 2.0898 1.2507 3.308 1.2507s2.3945-0.4447 3.308-1.2507z"/>
<path d="m14 23c1.1046 0 2-0.8954 2-2s-0.8954-2-2-2-2 0.8954-2 2 0.8954 2 2 2z"/>
<path d="m22 23c1.1046 0 2-0.8954 2-2s-0.8954-2-2-2-2 0.8954-2 2 0.8954 2 2 2z"/>
<path d="m62 27v-22c-0.0024-0.79492-0.3192-1.5566-0.8813-2.1187-0.5621-0.56209-1.3238-0.87893-2.1187-0.8813h-34c-0.7949 0.00237-1.5566 0.31921-2.1187 0.8813-0.5621 0.5621-0.8789 1.3238-0.8813 2.1187v2h-9c-1.3261 0-2.5979 0.52678-3.5355 1.4645-0.93769 0.93768-1.4645 2.2094-1.4645 3.5355v5h-0.5c-0.92826 0-1.8185 0.3687-2.4749 1.0251-0.65638 0.6564-1.0251 1.5466-1.0251 2.4749s0.36875 1.8185 1.0251 2.4749c0.65637 0.6564 1.5466 1.0251 2.4749 1.0251h0.55c0.18086 1.765 0.82697 3.4504 1.8723 4.884 1.0454 1.4337 2.4525 2.5641 4.0777 3.276v1.01c-0.6389 0.2046-1.2004 0.5988-1.61 1.13-0.0163 0.0354-0.0364 0.069-0.06 0.1l-4.87 2.85c-1.6583 0.9687-3.0346 2.3541-3.9923 4.0187-0.95774 1.6647-1.4637 3.5508-1.4677 5.4713v5.21c0.00295 1.1518 0.40213 2.2675 1.1305 3.1598s1.7416 1.5067 2.8695 1.7402v4.15c0 0.2652 0.10536 0.5196 0.29289 0.7071 0.18754 0.1875 0.44189 0.2929 0.70711 0.2929h22c0.2652 0 0.5196-0.1054 0.7071-0.2929s0.2929-0.4419 0.2929-0.7071v-4.15c1.1279-0.2335 2.1411-0.8479 2.8695-1.7402s1.1276-2.008 1.1305-3.1598v-3.95h22v13c0 0.2652 0.1054 0.5196 0.2929 0.7071s0.4419 0.2929 0.7071 0.2929h4c0.2652 0 0.5196-0.1054 0.7071-0.2929s0.2929-0.4419 0.2929-0.7071v-26c0-0.2652-0.1054-0.5196-0.2929-0.7071s-0.4419-0.2929-0.7071-0.2929h-13.15l-0.67-4h11.82c0.7949-0.0024 1.5566-0.3192 2.1187-0.8813s0.8789-1.3238 0.8813-2.1187zm-54-5h-0.5c-0.39782 0-0.77936-0.158-1.0607-0.4393s-0.43934-0.6629-0.43934-1.0607 0.15804-0.7794 0.43934-1.0607 0.66284-0.4393 1.0607-0.4393h0.5v3zm16-17c0-0.26522 0.1054-0.51957 0.2929-0.70711 0.1875-0.18753 0.4419-0.29289 0.7071-0.29289h34c0.2652 0 0.5196 0.10536 0.7071 0.29289 0.1875 0.18754 0.2929 0.44189 0.2929 0.70711v17h-28.35c0.2283-0.4672 0.348-0.98 0.35-1.5 0-0.9283-0.3687-1.8185-1.0251-2.4749s-1.5466-1.0251-2.4749-1.0251h-0.5v-5c-0.0029-1.1518-0.4021-2.2675-1.1305-3.1598s-1.7416-1.5067-2.8695-1.7402v-2.1zm6 15.5c0 0.3978-0.158 0.7794-0.4393 1.0607s-0.6629 0.4393-1.0607 0.4393h-0.5v-3h0.5c0.3978 0 0.7794 0.158 1.0607 0.4393s0.4393 0.6629 0.4393 1.0607zm-8.56 14.58c0.2283 0.0788 0.4272 0.2253 0.57 0.42 0.1198 0.1555 0.2005 0.3374 0.2353 0.5306 0.0349 0.1932 0.0227 0.3919-0.0353 0.5794l-0.77 2.72-2.04-1.53 2.04-2.72zm-3.44 1.25-2-2.66v-0.87c1.32 0.2667 2.68 0.2667 4 0v0.87l-2 2.66zm4-3.16v-1.01c1.1717-0.5135 2.2342-1.2467 3.13-2.16h11.69l-0.67 4h-12.83c-0.3654-0.3806-0.8187-0.6656-1.32-0.83zm-12-21.17c0.0024-0.7949 0.3192-1.5566 0.8813-2.1187 0.5621-0.56209 1.3238-0.87893 2.1187-0.8813h10c0.7949 0.00237 1.5566 0.31921 2.1187 0.8813 0.5621 0.5621 0.8789 1.3238 0.8813 2.1187v4.22c-0.3133-0.279-0.5643-0.6209-0.7366-1.0034-0.1723-0.3826-0.262-0.7971-0.2634-1.2166v-0.76c4e-4 -0.3116-0.0727-0.6189-0.2135-0.897-0.1407-0.278-0.3451-0.5189-0.5965-0.703-0.2572-0.1881-0.5554-0.3124-0.8701-0.3629-0.3146-0.0504-0.6368-0.0254-0.9399 0.0729-2.8581 0.85-5.9019 0.85-8.76 0-0.3031-0.0983-0.6253-0.1233-0.9399-0.0729-0.3147 0.0505-0.6129 0.1748-0.8701 0.3629-0.2514 0.1841-0.4558 0.425-0.5965 0.703-0.1408 0.2781-0.2139 0.5854-0.2135 0.897v0.76c-0.0014 0.4195-0.0911 0.834-0.2634 1.2166-0.1723 0.3825-0.4233 0.7244-0.7366 1.0034v-4.22zm0 11v-4.42c0.8902-0.3904 1.6477-1.0312 2.1803-1.8444 0.5326-0.8131 0.8174-1.7635 0.8197-2.7356l0.01-0.75c3.2574 0.9867 6.7346 0.9832 9.99-0.01v0.76c0.0023 0.9721 0.2871 1.9225 0.8197 2.7356 0.5326 0.8132 1.2901 1.454 2.1803 1.8444v4.42c0 2.1217-0.8429 4.1566-2.3431 5.6569-1.5003 1.5002-3.5352 2.3431-5.6569 2.3431s-4.1566-0.8429-5.6569-2.3431c-1.5002-1.5003-2.3431-3.5352-2.3431-5.6569zm3.99 12.5c0.1428-0.1947 0.3417-0.3412 0.57-0.42l2.04 2.72-2.04 1.53-0.77-2.72c-0.058-0.1875-0.0702-0.3862-0.0353-0.5794 0.0348-0.1932 0.1155-0.3751 0.2353-0.5306zm14.01 24.5h-20v-3.16c0.04-0.01 0.08-0.01 0.13-0.02l9.95-2.11 9.79 2.1c0.0421 0.0147 0.0857 0.0248 0.13 0.03v3.16zm-12-8.77c-0.0015-0.3216 0.1244-0.6308 0.35-0.86 0.1148-0.117 0.2517-0.21 0.4028-0.2735 0.1511-0.0636 0.3133-0.0964 0.4772-0.0965h2.77v3.08l-3.06-0.66c-0.2697-0.0598-0.5105-0.2109-0.6818-0.4277s-0.2625-0.4861-0.2582-0.7623zm16 0.72c-0.0024 0.7949-0.3192 1.5566-0.8813 2.1187s-1.3238 0.8789-2.1187 0.8813c-0.2359-0.0041-0.4707-0.0343-0.7-0.09l-6.3-1.35v-3.51h5c0.2652 0 0.5196-0.1054 0.7071-0.2929s0.2929-0.4419 0.2929-0.7071v-4h-2v3h-16v-3h-2v4c0 0.2652 0.10536 0.5196 0.29289 0.7071 0.18754 0.1875 0.44189 0.2929 0.70711 0.2929h5.24c-0.1601 0.3902-0.2416 0.8082-0.24 1.23-0.0037 0.7859 0.285 1.5452 0.81 2.13l-7.11 1.5c-0.22907 0.057-0.46397 0.0872-0.7 0.09-0.79492-0.0024-1.5566-0.3192-2.1187-0.8813-0.56209-0.5621-0.87893-1.3238-0.8813-2.1187v-5.21c0.00317-1.5712 0.41626-3.1144 1.1984-4.4771 0.78219-1.3627 1.9064-2.4977 3.2616-3.2929l3.38-1.97c0.01 0.05 0.01 0.11 0.02 0.16l0.78 2.72c0.0894 0.31 0.2525 0.5939 0.4754 0.8272s0.499 0.4093 0.8046 0.5128c0.2061 0.0704 0.4222 0.1076 0.64 0.11 0.4326-9e-4 0.8534-0.1411 1.2-0.4l2.24-1.68 2.24 1.68c0.3466 0.2589 0.7674 0.3991 1.2 0.4 0.2178-0.0024 0.4339-0.0396 0.64-0.11 0.3056-0.1035 0.5817-0.2795 0.8046-0.5128s0.386-0.5172 0.4754-0.8272l0.78-2.72c0.01-0.05 0.01-0.1 0.02-0.15l3.38 1.96c1.3552 0.7952 2.4794 1.9302 3.2616 3.2929 0.7821 1.3627 1.1952 2.9059 1.1984 4.4771v5.21zm28 8.05h-2v-12h2v12zm-9.18-24h9.18v10h-26.05c-0.1208-1.7888-0.6768-3.5211-1.6196-5.0461-0.9429-1.5249-2.2441-2.7964-3.7904-3.7039l-2.13-1.25h6.77c-0.1646 0.4518-0.2174 0.9367-0.154 1.4133 0.0635 0.4767 0.2413 0.9309 0.5184 1.3238 0.2771 0.393 0.6451 0.7132 1.0727 0.9331s0.9021 0.333 1.3829 0.3298h12c0.4808 0.0032 0.9553-0.1099 1.3829-0.3298s0.7956-0.5401 1.0727-0.9331c0.2771-0.3929 0.4549-0.8471 0.5184-1.3238 0.0634-0.4766 0.0106-0.9615-0.154-1.4133zm-2.82 0c0.2652 0 0.5196 0.1054 0.7071 0.2929s0.2929 0.4419 0.2929 0.7071-0.1054 0.5196-0.2929 0.7071-0.4419 0.2929-0.7071 0.2929h-12c-0.2652 0-0.5196-0.1054-0.7071-0.2929s-0.2929-0.4419-0.2929-0.7071 0.1054-0.5196 0.2929-0.7071 0.4419-0.2929 0.7071-0.2929h12zm-9.82-2 0.67-4h6.3l0.67 4h-7.64zm-11.53-6c0.7095-1.2272 1.1525-2.5902 1.3-4h32.05v3c0 0.2652-0.1054 0.5196-0.2929 0.7071s-0.4419 0.2929-0.7071 0.2929h-32.35z"/>
<path d="m33.293 13.707 1.414-1.414-2.293-2.293 2.293-2.293-1.414-1.414-3 3c-0.1875 0.18753-0.2928 0.44183-0.2928 0.707 0 0.2652 0.1053 0.5195 0.2928 0.707l3 3z"/>
<path d="m42.707 13.707 3-3c0.1875-0.1875 0.2928-0.4418 0.2928-0.707 0-0.26517-0.1053-0.51947-0.2928-0.707l-3-3-1.414 1.414 2.293 2.293-2.293 2.293 1.414 1.414z"/>
<path d="m38.031 5.758-2.0019 7.9994 1.9392 0.4853 2.0019-7.9994-1.9392-0.4853z"/>
<path d="m58 12h-10v2h10v-2z"/>
<path d="m50 8h-2v2h2v-2z"/>
<path d="m58 8h-6v2h6v-2z"/>
<path d="m58 16h-12v2h12v-2z"/>
<path d="m44 16h-6v2h6v-2z"/>
<path d="m36 16h-2v2h2v-2z"/>
</svg>
